PathFileType	4	(X/Y/Z)	TVC_4_BWA_7_walk_RCNL2025.trc
DataRate	CameraRate	NumFrames	NumMarkers	Units	OrigDataRate	OrigDataStartFrame	OrigNumFrames
100	100	7	27	mm	100	415	474
Frame#	Time	R_Shoulder			L_Shoulder			C7			J_Notch			R_Elbow			L_Elbow			R_Wrist			L_Wrist			R_Asis			L_Asis			R_Psis			L_Psis			Sacral			Thoracic			Sternum			R_Thigh_Lateral			R_Knee_Lateral			R_Shank_Lateral			R_Ankle_Lateral			R_Heel			R_Toe			L_Thigh_Lateral			L_Knee_Lateral			L_Shank_Lateral			L_Ankle_Lateral			L_Heel			L_Toe		
		X1	Y1	Z1	X2	Y2	Z2	X3	Y3	Z3	X4	Y4	Z4	X5	Y5	Z5	X6	Y6	Z6	X7	Y7	Z7	X8	Y8	Z8	X9	Y9	Z9	X10	Y10	Z10	X11	Y11	Z11	X12	Y12	Z12	X13	Y13	Z13	X14	Y14	Z14	X15	Y15	Z15	X16	Y16	Z16	X17	Y17	Z17	X18	Y18	Z18	X19	Y19	Z19	X20	Y20	Z20	X21	Y21	Z21	X22	Y22	Z22	X23	Y23	Z23	X24	Y24	Z24	X25	Y25	Z25	X26	Y26	Z26	X27	Y27	Z27
415	4.14000000	1785.556152	1288.499390	64.504021	1811.437744	1305.952759	-316.691681	1742.078613	1363.911743	-116.361740	1885.567383	1243.966309	-132.676132	1698.633789	984.580750	118.198662	1756.801514	985.000183	-395.952057	1729.128052	756.637207	124.513584	1895.554443	816.666473	-393.443085	1804.906860	853.025085	41.479816	1762.155029	837.561523	-307.607910	1645.780273	887.903381	-63.580341	1637.302124	884.810852	-155.354736	1641.541199	886.357117	-109.467539	1655.134155	1117.913086	-125.684761	1919.985474	1053.172119	-136.732773	1889.115356	520.304077	63.024319	1900.821533	430.677826	11.880304	1929.515625	261.574310	75.829163	1940.091797	49.128704	-14.555404	1892.528442	40.917187	-61.010147	2069.898682	39.778259	-37.863098	1726.658447	483.193787	-305.531677	1696.924561	407.100983	-254.305710	1638.158203	297.915955	-300.889343	1519.234741	72.541771	-221.692581	1474.501831	76.480240	-173.326767	1647.041260	32.025288	-208.914581
416	4.15000000	1795.450073	1289.158447	66.322525	1820.477173	1306.391479	-314.957428	1751.678955	1364.503906	-114.459511	1895.057007	1244.544800	-131.002563	1708.545410	985.306274	120.001801	1763.882935	985.407227	-392.897278	1738.041138	757.288361	126.247612	1901.508789	816.014069	-390.869461	1814.487305	854.413574	43.182045	1771.842773	837.828064	-305.671478	1655.403442	888.682434	-61.766521	1646.711182	885.179871	-153.565277	1651.057312	886.931152	-107.665899	1664.608154	1118.530029	-123.793716	1929.559692	1053.937378	-134.893982	1899.533569	521.643738	63.363838	1909.987061	431.448090	12.340142	1938.708496	262.607147	76.631241	1940.962402	48.987720	-14.542439	1893.108276	41.552494	-60.728157	2070.880371	37.818588	-38.262318	1738.004883	483.492920	-303.776245	1708.881470	407.863434	-253.011032	1646.922485	300.827118	-300.423492	1522.314087	78.230286	-222.242065	1478.042480	83.905495	-173.790955	1647.408203	31.812330	-208.960907
417	4.16000000	1805.378174	1290.000122	68.137085	1829.458618	1306.993042	-313.210358	1761.258545	1365.221924	-112.543777	1904.505981	1245.241577	-129.338531	1718.666138	986.164917	121.868668	1770.809937	986.003113	-389.765411	1747.516541	758.191315	127.930428	1906.996643	815.320648	-388.236740	1824.010742	855.906616	44.896130	1781.397339	838.317322	-303.693329	1664.962280	889.595215	-59.944820	1656.039307	885.674805	-151.768021	1660.500793	887.635010	-105.856421	1674.033691	1119.281128	-121.880547	1939.061279	1054.832275	-133.032654	1909.083008	522.719360	63.921455	1918.274414	432.096802	12.932177	1945.200439	262.965424	77.515762	1941.693237	48.927269	-14.520671	1893.622192	42.039444	-60.449905	2071.663086	36.546024	-38.553226	1750.381958	483.783264	-302.114014	1722.118774	408.636688	-251.904572	1656.946777	304.004395	-300.162994	1526.213623	84.640121	-223.024948	1482.500122	92.330818	-174.539536	1647.865967	31.660765	-209.015732
418	4.17000000	1815.335693	1290.992554	69.937141	1838.370117	1307.732788	-311.460999	1770.807007	1366.044922	-110.625168	1913.905273	1246.034790	-127.696861	1728.969849	987.130432	123.798813	1777.597412	986.762512	-386.582581	1757.554993	759.304626	129.571648	1912.041870	814.583710	-385.557205	1833.492798	857.449341	46.609791	1790.796509	838.985596	-301.687378	1674.450317	890.618103	-58.116013	1665.280762	886.276245	-149.962967	1669.865540	888.447174	-104.039490	1683.404297	1120.143066	-119.946716	1948.481201	1055.823242	-131.173325	1917.511963	523.445618	64.720490	1925.618042	432.586914	13.667436	1948.764404	262.674438	78.401634	1942.291016	48.917080	-14.502130	1894.045044	42.374374	-60.183277	2072.262451	35.810993	-38.771286	1763.810425	484.003082	-300.604065	1736.566040	409.363617	-251.029648	1668.278564	307.333527	-300.119873	1531.036987	91.674393	-224.041885	1487.968262	101.621582	-175.589447	1648.537720	31.645479	-209.083527
419	4.18000000	1825.316284	1292.097900	71.712730	1847.199219	1308.581665	-309.720062	1780.313477	1366.949829	-108.713791	1923.246460	1246.900391	-126.090187	1739.432007	988.169861	125.790642	1784.259644	987.654663	-383.375000	1768.148621	760.570709	131.184311	1916.672180	813.799988	-382.844101	1842.944336	858.990784	48.311127	1800.026733	839.779114	-299.671265	1683.861084	891.725403	-56.282589	1674.431519	886.963135	-148.152069	1679.146301	889.344269	-102.217329	1692.713989	1121.090576	-117.993507	1957.812622	1056.874268	-129.342270	1924.657349	523.782959	65.765015	1932.020386	432.902893	14.547095	1949.769287	261.919006	79.237183	1942.761841	48.930862	-14.491992	1894.360474	42.574024	-59.931919	2072.698242	35.456802	-38.936939	1778.269165	484.110260	-299.296539	1752.089600	409.996399	-250.413620	1680.911377	310.683319	-300.285614	1536.875854	99.189728	-225.272110	1494.519165	111.565659	-176.927475	1649.622559	31.863039	-209.183304
420	4.19000000	1835.312256	1293.275146	73.454498	1855.934570	1309.507812	-307.998474	1789.768311	1367.912720	-106.819153	1932.521973	1247.813599	-124.530548	1750.030884	989.245300	127.841042	1790.810913	988.645447	-380.168427	1779.283569	761.923035	132.783550	1920.918152	812.966064	-380.111465	1852.369263	860.486816	49.989021	1809.082642	840.639465	-297.665741	1693.187988	892.890625	-54.448910	1683.488770	887.713684	-146.339218	1688.338379	890.302155	-100.394064	1701.957153	1122.098267	-116.022499	1967.050415	1057.949585	-127.566383	1930.491943	523.744446	67.036423	1937.548706	433.048218	15.561196	1949.028809	260.945801	80.001297	1943.116821	48.948288	-14.489985	1894.566406	42.669937	-59.696381	2072.995361	35.341133	-39.058979	1793.685303	484.092712	-298.225128	1768.501343	410.503815	-250.063309	1694.778931	313.920563	-300.631805	1543.806519	107.001244	-226.673889	1502.200073	121.878975	-178.508621	1651.397217	32.419891	-209.351486
421	4.20000000	1845.313477	1294.482178	75.153778	1864.565796	1310.479126	-306.307159	1799.162231	1368.910278	-104.950195	1941.725220	1248.749512	-123.029129	1760.749390	990.317200	129.945038	1797.265015	989.699768	-376.987366	1790.941101	763.293854	134.384560	1924.812378	812.079102	-377.373718	1861.762939	861.901733	51.633644	1817.966797	841.509338	-295.693512	1702.424316	894.087463	-52.621140	1692.451538	888.507080	-144.530212	1697.437927	891.297272	-98.575676	1711.128540	1123.141113	-114.036011	1976.191162	1059.015015	-125.872025	1935.140259	523.392029	68.495956	1942.325439	433.041199	16.688963	1947.535889	259.970154	80.701836	1943.373169	48.955730	-14.492100	1894.675537	42.701687	-59.475010	2073.183594	35.349625	-39.139568	1809.924805	483.975494	-297.401550	1785.571777	410.877655	-249.962753	1709.754272	316.928802	-301.113007	1551.888428	114.892296	-228.187622	1511.033813	132.221756	-180.258347	1654.198486	33.412540	-209.640366
